<?xml version="1.0" encoding="utf-8"?>
<!-- Generator: Adobe Illustrator 16.0.0, SVG Export Plug-In . SVG Version: 6.00 Build 0)  -->
<!DOCTYPE svg PUBLIC "-//W3C//DTD SVG 1.1//EN" "http://www.w3.org/Graphics/SVG/1.1/DTD/svg11.dtd">
<svg version="1.1" id="Layer_1" xmlns="http://www.w3.org/2000/svg" xmlns:xlink="http://www.w3.org/1999/xlink" x="0px" y="0px"
	 width="100px" height="100px" viewBox="0 0 100 100" enable-background="new 0 0 100 100" xml:space="preserve">
<g>
	<path fill-rule="evenodd" clip-rule="evenodd" fill="#CB2026" d="M15.377,31.357c3.153,4.026,11.098,14.729,21.543,21.962
		C52.506,26.92,64.682,17.54,90.28,6.737c5.46-2.304,10.564,3.214,5.879,6.837c-23.831,18.405-33.646,28.69-44.007,52.031
		c-5.524,12.444-14.637,14.696-24.135,5.547c-8.17-7.868-13.634-11.947-25-29.021C-1.734,34.991,11.485,26.379,15.377,31.357
		L15.377,31.357z"/>
	<path fill-rule="evenodd" clip-rule="evenodd" fill="#BABABA" d="M88.976,25.235v62.742c0,1.404-0.58,2.687-1.51,3.622
		l-0.013,0.015c-0.936,0.93-2.219,1.507-3.623,1.507H12.431c-1.417,0-2.706-0.577-3.637-1.507c-0.928-0.931-1.508-2.221-1.508-3.637
		V56.112c2.072,2.643,4.229,5.193,6.549,7.696v22.764h68.591V30.869C84.484,29.004,86.662,27.141,88.976,25.235L88.976,25.235z
		 M12.431,11.433h57.543c-3.563,2.066-6.822,4.223-9.867,6.548H13.835v7.326c-2.094-0.38-4.372-0.05-6.549,0.806v-9.534
		c0-1.41,0.58-2.694,1.508-3.625l0.015-0.013C9.74,12.013,11.023,11.433,12.431,11.433L12.431,11.433z"/>
</g>
</svg>
