<?xml version="1.0" encoding="utf-8"?>
<!-- Generator: Adobe Illustrator 16.0.0, SVG Export Plug-In . SVG Version: 6.00 Build 0)  -->
<!DOCTYPE svg PUBLIC "-//W3C//DTD SVG 1.1//EN" "http://www.w3.org/Graphics/SVG/1.1/DTD/svg11.dtd">
<svg version="1.1" id="Layer_1" xmlns="http://www.w3.org/2000/svg" xmlns:xlink="http://www.w3.org/1999/xlink" x="0px" y="0px"
	 width="100px" height="100px" viewBox="0 0 100 100" enable-background="new 0 0 100 100" xml:space="preserve">
<g>
	<path fill-rule="evenodd" clip-rule="evenodd" fill="#BBBBBB" d="M74.88,20.024c-7.31-5.821-16.563-9.301-26.625-9.301
		c-11.806,0-22.494,4.786-30.232,12.52C10.285,30.982,5.5,41.669,5.5,53.481c0,11.806,4.785,22.491,12.522,30.229
		C25.76,91.443,36.449,96.23,48.254,96.23c11.803,0,22.495-4.787,30.23-12.521c7.739-7.736,12.525-18.423,12.525-30.229
		c0-10.062-3.475-19.313-9.287-26.614l-6.244,6.244c4.254,5.676,6.771,12.728,6.771,20.37c0,9.38-3.804,17.883-9.955,24.037
		c-6.151,6.148-14.649,9.952-24.04,9.952s-17.887-3.804-24.04-9.952c-6.152-6.154-9.957-14.656-9.957-24.037
		c0-9.393,3.805-17.892,9.957-24.043c6.153-6.153,14.65-9.959,24.04-9.959c7.645,0,14.7,2.525,20.381,6.786L74.88,20.024
		L74.88,20.024z M63.177,31.723c-4.241-2.916-9.385-4.625-14.922-4.625c-7.283,0-13.881,2.953-18.653,7.725
		c-4.773,4.774-7.727,11.372-7.727,18.659c0,7.278,2.953,13.877,7.727,18.647c4.772,4.775,11.371,7.725,18.653,7.725
		s13.875-2.949,18.654-7.725c4.772-4.771,7.729-11.369,7.729-18.647c0-5.536-1.709-10.672-4.616-14.911l-6.354,6.353
		c1.405,2.533,2.205,5.451,2.205,8.559c0,4.862-1.971,9.271-5.159,12.456c-3.188,3.188-7.589,5.163-12.458,5.163
		c-4.865,0-9.271-1.976-12.459-5.163c-3.188-3.186-5.162-7.594-5.162-12.456c0-4.871,1.974-9.276,5.162-12.464
		c3.188-3.188,7.594-5.163,12.459-5.163c3.112,0,6.036,0.809,8.573,2.223L63.177,31.723L63.177,31.723z M48.254,63.313
		c5.431,0,9.84-4.402,9.84-9.832c0-0.913-0.126-1.799-0.356-2.636c-2.013,2.013-4.06,4.067-6.057,6.058
		c-1.89,1.897-4.962,1.897-6.854,0c-1.893-1.888-1.893-4.956,0-6.857c2.018-2.015,4.056-4.027,6.075-6.047
		c-0.84-0.236-1.73-0.362-2.648-0.362c-5.435,0-9.84,4.405-9.84,9.845C38.415,58.911,42.82,63.313,48.254,63.313L48.254,63.313z"/>
	<path fill-rule="evenodd" clip-rule="evenodd" fill="#CB2026" d="M49.571,54.795l31.424-31.202l8.771-0.043
		c0.238-0.001,0.445-0.085,0.616-0.258l7.877-8.125c0.55-0.566,0.09-1.398-0.694-1.398l-6.956,0.003l0.588-0.59
		c1.729-1.731-0.904-4.363-2.631-2.633l-0.594,0.496l-0.005-6.985c-0.002-0.783-0.878-1.122-1.423-0.567l-7.758,7.906
		c-0.172,0.171-0.261,0.376-0.261,0.617v8.713C68.041,31.208,57.414,41.679,46.938,52.161
		C45.206,53.891,47.839,56.524,49.571,54.795L49.571,54.795z"/>
</g>
</svg>
