<?xml version="1.0" encoding="utf-8"?>
<!-- Generator: Adobe Illustrator 16.0.0, SVG Export Plug-In . SVG Version: 6.00 Build 0)  -->
<!DOCTYPE svg PUBLIC "-//W3C//DTD SVG 1.1//EN" "http://www.w3.org/Graphics/SVG/1.1/DTD/svg11.dtd">
<svg version="1.1" id="Layer_1" xmlns="http://www.w3.org/2000/svg" xmlns:xlink="http://www.w3.org/1999/xlink" x="0px" y="0px"
	 width="100px" height="100px" viewBox="0 0 100 100" enable-background="new 0 0 100 100" xml:space="preserve">
<g>
	<path fill-rule="evenodd" clip-rule="evenodd" fill="#CB2026" d="M86.544,3.491"/>
</g>
<g>
	<path fill="#BABABA" d="M56.39,93.708c-0.219,2.56-2.365,4.567-4.981,4.567h-2.779c-2.615,0-4.76-2.008-4.981-4.567h-2.009
		c-0.817,0-1.549-0.367-2.038-0.945l-3.573-3.641c-0.51-0.519-0.763-1.193-0.763-1.869h-0.008V70.872
		c0-1.025,0.578-1.916,1.424-2.359v-1.374c-3.866-2.079-7.161-4.772-9.591-8.326c-2.749-4.021-4.344-9.068-4.344-15.479
		c0-6.762,3.266-13.859,8.497-19.091c4.873-4.871,11.477-8.182,18.776-8.182c7.302,0,13.901,3.311,18.774,8.182
		c5.231,5.231,8.498,12.329,8.498,19.091c0,6.411-1.596,11.458-4.345,15.479c-2.433,3.554-5.726,6.247-9.592,8.326v1.374
		c0.847,0.443,1.425,1.334,1.425,2.359v16.381c0,0.801-0.35,1.516-0.906,2.008l-3.578,3.647c-0.521,0.528-1.209,0.792-1.896,0.792
		v0.008H56.39L56.39,93.708z M40.592,80.413v3.295l18.855-2.695v-3.297L40.592,80.413L40.592,80.413z M40.592,73.252v3.798
		l18.855-2.696v-1.102H40.592L40.592,73.252z M51.408,88.275c0.348,0,0.685,0.034,1.009,0.102h4.873l2.157-2.202v-1.803
		l-18.086,2.589l1.388,1.416h4.874c0.325-0.067,0.661-0.102,1.007-0.102H51.408L51.408,88.275z M59.212,63.294L59.212,63.294
		l0.003,0.006c0.101-0.068,0.206-0.131,0.32-0.184c3.724-1.794,6.853-4.138,9.018-7.304c2.156-3.153,3.406-7.213,3.406-12.479
		c0-5.353-2.666-11.05-6.935-15.32c-3.941-3.94-9.229-6.619-15.005-6.619c-5.778,0-11.063,2.678-15.004,6.619
		c-4.271,4.271-6.936,9.968-6.936,15.32c0,5.266,1.25,9.326,3.406,12.479c2.133,3.119,5.201,5.44,8.854,7.222l0.062,0.027
		l0.021,0.011l0.104,0.05l0.034,0.016l0.003,0.001l0.039,0.021l0.104,0.058l0.005,0.005c0.781,0.463,1.304,1.316,1.304,2.291v4.406
		h3.354h2.186h4.99h2.738h2.74v-4.406C58.024,64.653,58.438,63.81,59.212,63.294L59.212,63.294z"/>
	<path fill="#BABABA" d="M80.526,41.781c-0.598,0.102-0.979,0.709-0.979,1.553c0,0.845,0.381,1.453,0.979,1.554l8.357,1.451
		c0.646,0.102,1.136-0.438,1.136-1.349v-3.31c0-0.911-0.489-1.452-1.136-1.35L80.526,41.781L80.526,41.781z"/>
	<path fill="#BABABA" d="M19.511,41.781c0.6,0.102,0.979,0.709,0.979,1.553c0,0.845-0.379,1.453-0.979,1.554l-8.357,1.451
		c-0.645,0.102-1.134-0.438-1.134-1.349v-3.31c0-0.911,0.489-1.452,1.134-1.35L19.511,41.781L19.511,41.781z"/>
	<path fill="#BABABA" d="M51.572,12.826c-0.102,0.6-0.709,0.978-1.554,0.978c-0.844,0-1.452-0.378-1.553-0.978l-1.452-8.358
		c-0.102-0.645,0.438-1.134,1.351-1.134h3.309c0.913,0,1.45,0.489,1.351,1.134L51.572,12.826L51.572,12.826z"/>
	<path fill="#BABABA" d="M72.689,63.81c-0.493-0.354-1.191-0.19-1.79,0.406c-0.596,0.597-0.76,1.294-0.406,1.787l4.883,6.938
		c0.384,0.529,1.113,0.494,1.758-0.153l2.34-2.337c0.645-0.647,0.682-1.375,0.15-1.76L72.689,63.81L72.689,63.81z"/>
	<path fill="#BABABA" d="M29.545,20.663c0.352,0.496,0.19,1.194-0.406,1.791c-0.599,0.597-1.294,0.76-1.791,0.407l-6.936-4.884
		c-0.528-0.384-0.492-1.111,0.151-1.755l2.341-2.341c0.645-0.644,1.374-0.682,1.757-0.154L29.545,20.663L29.545,20.663z"/>
	<path fill="#BABABA" d="M70.493,20.663c-0.354,0.496-0.188,1.194,0.406,1.791c0.599,0.597,1.297,0.76,1.79,0.407l6.935-4.884
		c0.531-0.384,0.494-1.111-0.15-1.755l-2.34-2.341c-0.645-0.644-1.374-0.681-1.758-0.154L70.493,20.663L70.493,20.663z"/>
	<path fill="#BABABA" d="M27.349,63.81c0.496-0.354,1.192-0.19,1.791,0.406c0.597,0.597,0.758,1.294,0.406,1.787l-4.883,6.938
		c-0.384,0.529-1.113,0.494-1.758-0.152l-2.341-2.338c-0.644-0.647-0.68-1.375-0.151-1.76L27.349,63.81L27.349,63.81z"/>
	<polygon fill="#CB2026" points="47.837,65.501 48.642,52.866 38.909,54.294 53.524,26.3 50.619,45.367 59.37,43.627 53.694,65.501 
		47.837,65.501 	"/>
</g>
</svg>
