<?xml version="1.0" encoding="utf-8"?>
<!-- Generator: Adobe Illustrator 16.0.0, SVG Export Plug-In . SVG Version: 6.00 Build 0)  -->
<!DOCTYPE svg PUBLIC "-//W3C//DTD SVG 1.1//EN" "http://www.w3.org/Graphics/SVG/1.1/DTD/svg11.dtd">
<svg version="1.1" id="Layer_1" xmlns="http://www.w3.org/2000/svg" xmlns:xlink="http://www.w3.org/1999/xlink" x="0px" y="0px"
	 width="120px" height="120px" viewBox="0 0 120 120" enable-background="new 0 0 120 120" xml:space="preserve">
<g>
	<path fill-rule="evenodd" clip-rule="evenodd" fill="#BABABA" d="M71.922,59.796c-2.766,1.388-5.939,2.775-8.697,4.162
		c0.361-6.977,0.652-14.014,2.262-20.985c2.662-11.543,18.377-11.16,20.631,0c1.441,7.128,2.033,13.856,2.262,20.985
		c-2.758-1.387-5.93-2.774-8.695-4.162v-2.63c1.701-1.852,2.977-4.783,3.75-7.604c-1.482-1.175-2.852-2.466-4.074-3.905
		c-0.857-1.006-1.641-2.085-2.342-3.247c0.48,2.149,1.713,4.05,3.342,6.241c-2.234-1.376-4.287-3.474-5.66-6.306
		c-0.689,0.981-1.436,1.883-2.238,2.709c-1.293,1.335-2.729,2.475-4.289,3.437c0.693,2.978,1.973,6.257,3.75,8.368V59.796
		L71.922,59.796z M89.078,65.424c3.803,1.565,6.402,2.474,6.693,7.159L97,92.432c-14.133,0-28.264,0-42.396,0l1.229-19.849
		c0.29-4.687,2.891-5.594,6.693-7.159l4.953-2.354c1.27,4.376,4.695,9.477,8.324,12.483c3.627-3.007,7.055-8.107,8.322-12.483
		L89.078,65.424L89.078,65.424z M75.803,78.635c0.885,0,1.604,0.719,1.604,1.604c0,0.887-0.719,1.604-1.604,1.604
		c-0.887,0-1.605-0.718-1.605-1.604C74.197,79.354,74.916,78.635,75.803,78.635L75.803,78.635z M75.803,84.251
		c0.885,0,1.604,0.719,1.604,1.604c0,0.887-0.719,1.604-1.604,1.604c-0.887,0-1.605-0.718-1.605-1.604
		C74.197,84.97,74.916,84.251,75.803,84.251L75.803,84.251z"/>
	<path fill-rule="evenodd" clip-rule="evenodd" fill="#BABABA" d="M24.969,35.033c-5.148,0-9.322,4.03-9.322,9.005
		c0,4.81,3.464,15.191,9.322,15.191c5.859,0,9.324-10.381,9.324-15.191C34.293,39.063,30.119,35.033,24.969,35.033L24.969,35.033z
		 M44.774,67.632c-0.472-0.956-1.223-1.697-2.114-2.174c0.005-0.423-8.796-3.788-9.634-4.114
		c-1.044,4.169-3.233,12.946-5.164,16.801l-1.299-10.703l-1.537-1.019l-1.538,1.019L22.19,78.145
		c-1.932-3.854-4.12-12.632-5.164-16.801c-0.838,0.326-9.64,3.691-9.634,4.114c-0.891,0.477-1.642,1.218-2.114,2.174
		C2.516,73.195,1.556,86.579,1,92.432c16.018,0,32.035,0,48.053,0C48.496,86.579,47.537,73.195,44.774,67.632L44.774,67.632z"/>
</g>
</svg>
