<?xml version="1.0" encoding="utf-8"?>
<!-- Generator: Adobe Illustrator 16.0.0, SVG Export Plug-In . SVG Version: 6.00 Build 0)  -->
<!DOCTYPE svg PUBLIC "-//W3C//DTD SVG 1.1//EN" "http://www.w3.org/Graphics/SVG/1.1/DTD/svg11.dtd">
<svg version="1.1" id="Layer_1" xmlns="http://www.w3.org/2000/svg" xmlns:xlink="http://www.w3.org/1999/xlink" x="0px" y="0px"
	 width="120px" height="120px" viewBox="0 0 120 120" enable-background="new 0 0 120 120" xml:space="preserve">
<path fill-rule="evenodd" clip-rule="evenodd" fill="#BABABA" d="M36.925,89.368c-1.791-2.34-4.324-6.359-9.291-9.168
	c-1.006-0.515-1.405-1.747-0.891-2.754c0.514-1.006,1.746-1.405,2.753-0.891c1.531,0.782,2.702,1.58,3.738,2.447
	c-0.254-0.835-0.521-1.666-0.8-2.493c-1.061-3.149-2.31-6.244-3.774-9.393l0,0c-0.476-1.024-0.029-2.241,0.996-2.717
	c1.025-0.475,2.242-0.029,2.717,0.996c1.136,2.439,2.149,4.862,3.058,7.318c0.255-0.491,0.708-0.876,1.284-1.03
	c0.758-0.201,1.53,0.051,2.027,0.59c0.266-0.405,0.676-0.719,1.181-0.853c0.754-0.201,1.522,0.048,2.021,0.581
	c0.164-0.26,0.389-0.486,0.669-0.655c0.966-0.584,2.223-0.274,2.807,0.691C47.645,75.72,48.588,80.85,49,85.096
	C47.952,87.107,41.654,89.605,36.925,89.368"/>
<path fill-rule="evenodd" clip-rule="evenodd" fill="#BABABA" d="M32.259,86.513H3.786C1.701,86.513,0,84.812,0,82.727V32.403
	c0-2.085,1.701-3.786,3.786-3.786h37.843c2.086,0,3.786,1.701,3.786,3.786v37.122c-0.935-0.453-2.032-0.537-3.043-0.189V35.237
	c0-0.406-0.337-0.744-0.743-0.744H3.786c-0.402,0-0.738,0.332-0.743,0.734V79.34c0,0.405,0.338,0.743,0.743,0.743h21.5
	c0.066,0.738,0.835,1.508,1.425,1.818c2.028,1.151,3.766,2.618,5.319,4.351C32.106,86.339,32.183,86.425,32.259,86.513
	L32.259,86.513z M22.431,82.131c0.654,0,1.185,0.531,1.185,1.185c0,0.654-0.531,1.185-1.185,1.185c-0.654,0-1.185-0.53-1.185-1.185
	C21.247,82.662,21.777,82.131,22.431,82.131L22.431,82.131z"/>
<path fill="#CB2026" d="M34.971,54.675c0.643,0,1.163,0.521,1.163,1.163c0,0.643-0.521,1.164-1.162,1.164H10.444
	c-0.643,0-1.164-0.521-1.164-1.163c0-0.642,0.521-1.163,1.163-1.163H34.971L34.971,54.675z M34.971,43.509
	c0.643,0,1.163,0.521,1.163,1.163c0,0.643-0.521,1.164-1.162,1.164H10.444c-0.643,0-1.164-0.521-1.164-1.163
	c0-0.642,0.521-1.163,1.163-1.163H34.971L34.971,43.509z M34.971,49.092c0.643,0,1.163,0.521,1.163,1.163
	c0,0.642-0.521,1.164-1.162,1.164H10.444c-0.643,0-1.164-0.521-1.164-1.164c0-0.642,0.521-1.163,1.163-1.163H34.971L34.971,49.092z"
	/>
</svg>
