<?xml version="1.0" encoding="utf-8"?>
<!-- Generator: Adobe Illustrator 16.0.0, SVG Export Plug-In . SVG Version: 6.00 Build 0)  -->
<!DOCTYPE svg PUBLIC "-//W3C//DTD SVG 1.1//EN" "http://www.w3.org/Graphics/SVG/1.1/DTD/svg11.dtd">
<svg version="1.1" id="Layer_1" xmlns="http://www.w3.org/2000/svg" xmlns:xlink="http://www.w3.org/1999/xlink" x="0px" y="0px"
	 width="120px" height="120px" viewBox="0 0 120 120" enable-background="new 0 0 120 120" xml:space="preserve">
<g>
	<path fill-rule="evenodd" clip-rule="evenodd" fill="#BABABA" d="M17.144,71.234c3.123,0,4.714,3.795,2.485,6.019
		c-2.217,2.211-6.009,0.629-6.009-2.495C13.621,72.815,15.202,71.234,17.144,71.234L17.144,71.234z M17.143,65.828
		c7.912,0,11.941,9.616,6.296,15.249c-5.616,5.603-15.224,1.594-15.224-6.321C8.214,69.836,12.222,65.828,17.143,65.828
		L17.143,65.828z M60.622,71.234c3.122,0,4.713,3.795,2.485,6.019c-2.217,2.211-6.01,0.629-6.01-2.495
		C57.098,72.815,58.68,71.234,60.622,71.234L60.622,71.234z M60.62,65.828c7.912,0,11.941,9.616,6.296,15.249
		c-5.616,5.603-15.224,1.594-15.224-6.321C51.692,69.836,55.699,65.828,60.62,65.828L60.62,65.828z M72.91,69.257
		c5.341,0,4.797-0.303,4.797,5.646c0,2.513-4.184,1.837-4.443,1.555c-0.574-0.628,0.483-2.394-1.019-6.227
		C72.061,69.761,72.404,69.257,72.91,69.257L72.91,69.257z M29.433,69.257h18.87c1.754,0-0.515,2.38-0.134,6.655l-0.711,0.777
		H30.313c-1.498,0,0.146-2.144-1.545-6.458C28.583,69.761,28.927,69.257,29.433,69.257L29.433,69.257z M1.848,69.257
		c6.582,0,2.247-0.139,2.845,6.655c0.095,1.085-1.508,0.777-2.845,0.777c-2.361,0-1.786-3.108-1.786-5.646
		C0.062,70.057,0.861,69.257,1.848,69.257L1.848,69.257z M49.279,63.898V36.966c0-0.986,0.8-1.787,1.785-1.787h19.788
		c2.352,0,2.352,3.573,0,3.573h-3.592l2.05,12.125c0.633,3.749,8.686,0.372,8.685,4.079L78,63.898c0,0.986-0.801,1.786-1.786,1.786
		h-6.175c-1.986,0-3.228-3.429-9.42-3.429c-6.223,0-7.219,3.429-9.555,3.429C50.079,65.685,49.279,64.885,49.279,63.898
		L49.279,63.898z M65.689,50.722l-2.048-11.969h-10.79v11.053c0,0.552,0.413,1.01,0.962,1.066l10.71,1.097
		C65.232,52.042,65.81,51.423,65.689,50.722L65.689,50.722z"/>
	<path fill-rule="evenodd" clip-rule="evenodd" fill="#CB2026" d="M3.777,26.244h40.137c0.986,0,1.785,0.8,1.785,1.787v35.868
		c0,0.986-0.799,1.786-1.785,1.786H26.562c-1.986,0-3.228-3.429-9.419-3.429c-6.078,0-7.447,3.429-9.406,3.429
		c-2.6,0-5.745,0.585-5.745-1.786V28.03C1.991,27.043,2.791,26.244,3.777,26.244L3.777,26.244z"/>
</g>
</svg>
