<?xml version="1.0" encoding="utf-8"?>
<!-- Generator: Adobe Illustrator 16.0.0, SVG Export Plug-In . SVG Version: 6.00 Build 0)  -->
<!DOCTYPE svg PUBLIC "-//W3C//DTD SVG 1.1//EN" "http://www.w3.org/Graphics/SVG/1.1/DTD/svg11.dtd">
<svg version="1.1" id="Layer_1" xmlns="http://www.w3.org/2000/svg" xmlns:xlink="http://www.w3.org/1999/xlink" x="0px" y="0px"
	 width="120px" height="120px" viewBox="0 0 120 120" enable-background="new 0 0 120 120" xml:space="preserve">
<g>
	<path fill="#CB2026" d="M54.072,63.354l-2.962,9.952l-2.325-2.703C36.539,81.946,15.74,87.792,1.306,76.506
		c-1.553-1.213-0.649-2.419,0.905-1.206c13.209,10.328,32.883,2.699,43.993-7.613l-2.318-2.788L54.072,63.354L54.072,63.354z
		 M7.927,56.96l2.961-9.952l2.325,2.703c12.247-11.343,33.045-17.189,47.479-5.903c1.553,1.213,0.649,2.419-0.905,1.206
		c-13.209-10.329-32.883-2.699-43.994,7.613l2.319,2.789L7.927,56.96L7.927,56.96z"/>
	<path fill="#BABABA" d="M12.852,77.371c2.173-1.289,4.471-2.337,6.852-3.132c-1.817-4.104-2.853-8.556-2.994-13.128H3.973
		c-0.061,0-0.121-0.006-0.179-0.016c0.241,5.792,2.382,11.105,5.83,15.361c-1.976-0.715-3.851-1.704-5.558-3.005
		C1.952,69.416,0.759,64.844,0.759,60c0-8.17,3.394-15.568,8.881-20.924c5.475-5.345,13.034-8.651,21.379-8.651
		c6.494,0,12.513,2.003,17.443,5.41c-2.249-0.321-4.539-0.417-6.824-0.307c-2.606-1.076-5.42-1.767-8.367-2.002
		c0.971,0.847,1.891,1.742,2.755,2.679c-0.828,0.159-1.65,0.343-2.466,0.551c-0.47-0.473-0.954-0.932-1.454-1.377v1.775
		c-0.73,0.213-1.456,0.444-2.173,0.694v-2.469c-1.378,1.227-2.641,2.558-3.781,3.976c-1.412,0.635-2.793,1.339-4.139,2.105
		c1.829-2.937,4.097-5.615,6.753-7.933c-6.078,0.484-11.588,2.911-15.88,6.641c1.946,1.256,4.011,2.3,6.157,3.121
		c-0.714,0.474-1.417,0.966-2.107,1.474c-1.828-0.785-3.593-1.726-5.276-2.816c-0.133-0.086-0.241-0.196-0.321-0.321
		c-4.458,4.536-7.281,10.616-7.545,17.337c0.059-0.01,0.12-0.016,0.182-0.016h1.556l-0.01,0.034l0.209-0.034
		c11.712,0,12.743,0,24.205,0v-11.31c-1.433-0.042-2.858-0.17-4.269-0.384c1.179-0.66,2.389-1.264,3.624-1.806
		c3.409,0.169,6.632-0.146,9.967-0.998c-0.308-0.574-0.633-1.139-0.974-1.693l0.412-0.065c0.641-0.097,1.286-0.175,1.935-0.234
		c0.261,0.452,0.512,0.909,0.753,1.372c1.255-0.412,2.485-0.899,3.687-1.458c1.268,0.068,2.529,0.22,3.77,0.462
		c-2.071,1.205-4.255,2.193-6.514,2.954c1.824,4.109,2.862,8.573,3.004,13.161h12.736c0.063,0,0.123,0.006,0.182,0.016
		c-0.222-5.64-2.245-10.829-5.524-15.032c1.937,0.732,3.771,1.733,5.44,3.038L58.202,47c1.97,3.924,3.076,8.336,3.076,13
		c0,8.17-3.395,15.568-8.881,20.925c-5.475,5.345-13.034,8.65-21.379,8.65c-6.274,0-12.104-1.869-16.938-5.067
		c2.285,0.291,4.608,0.352,6.921,0.204c2.412,0.93,4.993,1.533,7.686,1.756c-0.879-0.772-1.716-1.584-2.508-2.432
		c0.83-0.163,1.654-0.352,2.472-0.563c0.416,0.411,0.842,0.813,1.281,1.204V83.12c0.73-0.213,1.455-0.444,2.173-0.694v2.251
		c1.266-1.128,2.435-2.343,3.501-3.633c1.436-0.635,2.84-1.34,4.208-2.111c-1.773,2.779-3.942,5.32-6.464,7.534
		c6.007-0.496,11.458-2.889,15.719-6.563c-1.872-1.209-3.853-2.222-5.908-3.028c0.708-0.475,1.405-0.966,2.09-1.474
		c1.771,0.777,3.482,1.7,5.115,2.765c0.111,0.072,0.206,0.162,0.28,0.263c4.476-4.528,7.317-10.607,7.597-17.333
		c-0.059,0.01-0.118,0.016-0.18,0.016c-13.002,0-13.899,0-25.958,0v11.314c1.527,0.049,3.045,0.195,4.545,0.438
		c-1.135,0.646-2.298,1.241-3.486,1.778c-3.481-0.228-7.015,0.093-10.396,0.949c0.347,0.647,0.715,1.283,1.105,1.907
		c-0.176,0.029-0.353,0.058-0.53,0.085c-0.6,0.09-1.205,0.164-1.812,0.222c-0.309-0.526-0.604-1.061-0.885-1.602
		c-1.421,0.462-2.812,1.02-4.161,1.669C15.262,77.786,14.046,77.622,12.852,77.371L12.852,77.371z M29.932,72.422V61.111H18.884
		c0.143,4.369,1.148,8.609,2.908,12.501C24.439,72.905,27.17,72.503,29.932,72.422L29.932,72.422z M32.105,47.634v11.313h11.048
		c-0.144-4.374-1.154-8.624-2.924-12.526C37.583,47.136,34.857,47.545,32.105,47.634L32.105,47.634z"/>
</g>
</svg>
