<?xml version="1.0" encoding="utf-8"?>
<!-- Generator: Adobe Illustrator 16.0.0, SVG Export Plug-In . SVG Version: 6.00 Build 0)  -->
<!DOCTYPE svg PUBLIC "-//W3C//DTD SVG 1.1//EN" "http://www.w3.org/Graphics/SVG/1.1/DTD/svg11.dtd">
<svg version="1.1" id="Layer_1" xmlns="http://www.w3.org/2000/svg" xmlns:xlink="http://www.w3.org/1999/xlink" x="0px" y="0px"
	 width="120px" height="120px" viewBox="0 0 120 120" enable-background="new 0 0 120 120" xml:space="preserve">
<g>
	<path fill="#CB2026" d="M60.022,37.104c7.751,0,14.033,6.283,14.033,14.034s-6.281,14.034-14.033,14.034
		c-11.529,0-18.025-13.112-11.357-22.28c2.168,4.52,9.034,2.989,9.034-2.05c0-1.265-0.496-2.414-1.3-3.264
		C57.555,37.269,58.769,37.104,60.022,37.104L60.022,37.104z"/>
	<path fill="#BABABA" d="M78.873,32.288c-16.754-16.752-45.51-4.823-45.51,18.85s28.756,35.602,45.51,18.851
		C89.282,59.577,89.282,42.699,78.873,32.288L78.873,32.288z M60.022,27.222c21.234,0,31.942,25.795,16.913,40.826
		c-15.033,15.03-40.829,4.323-40.829-16.91C36.106,37.931,46.816,27.222,60.022,27.222L60.022,27.222z M72.894,38.267
		C61.458,26.833,41.82,34.969,41.82,51.138c0,16.167,19.638,24.308,31.073,12.872C80,56.901,80,45.374,72.894,38.267L72.894,38.267z
		 M64.104,22.279c23.619,3.314,33.557,32.434,16.523,49.466C62.317,90.056,30.88,77.019,30.88,51.138
		c0-14.618,10.806-26.859,25.059-28.858V12.078C23.295,15.451,8.852,55.506,32.253,78.906c24.676,24.676,67.04,7.109,67.04-27.769
		c0-20.215-15.321-37.007-35.188-39.06V22.279L64.104,22.279z M60.022,21.995c0.537,0,1.07,0.015,1.599,0.044V11.9h-3.198v10.139
		C58.951,22.01,59.486,21.995,60.022,21.995L60.022,21.995z M55.938,105.524v-9.586c-6.977-0.628-13.495-2.849-19.188-6.296
		l-1.684,15.882H55.938L55.938,105.524z M61.621,105.524v-9.43h-3.198v9.43H61.621L61.621,105.524z M64.104,95.938v9.586h20.871
		l-1.684-15.882C77.602,93.09,71.083,95.311,64.104,95.938L64.104,95.938z M60.022,6.153c39.936,0,60.082,48.511,31.809,76.792
		c-1.022,1.022-2.094,1.994-3.21,2.914l2.358,22.231c0.172,1.672-1.157,3.141-2.835,3.141v0.006H31.898
		c-1.723,0-3.082-1.473-2.812-3.367l2.335-22.011C10.94,68.965,9.423,38.12,28.213,19.33C36.354,11.189,47.601,6.153,60.022,6.153
		L60.022,6.153z"/>
</g>
</svg>
