<?xml version="1.0" encoding="utf-8"?>
<!-- Generator: Adobe Illustrator 16.0.0, SVG Export Plug-In . SVG Version: 6.00 Build 0)  -->
<!DOCTYPE svg PUBLIC "-//W3C//DTD SVG 1.1//EN" "http://www.w3.org/Graphics/SVG/1.1/DTD/svg11.dtd">
<svg version="1.1" id="Layer_1" xmlns="http://www.w3.org/2000/svg" xmlns:xlink="http://www.w3.org/1999/xlink" x="0px" y="0px"
	 width="120px" height="120px" viewBox="0 0 120 120" enable-background="new 0 0 120 120" xml:space="preserve">
<g>
	<path fill-rule="evenodd" clip-rule="evenodd" fill="#CB2026" d="M61,69.811c0.961,0,1.86,0.27,2.627,0.734l19.022-11.049
		c1.158-0.671,2.645-0.275,3.316,0.883c0.67,1.16,0.275,2.645-0.885,3.316L66.063,74.741l0.002,0.134
		c0,2.798-2.267,5.064-5.065,5.064c-2.796,0-5.064-2.267-5.064-5.064C55.936,72.078,58.204,69.811,61,69.811L61,69.811z M61,72.576
		c1.27,0,2.297,1.029,2.297,2.299S62.27,77.174,61,77.174c-1.268,0-2.296-1.029-2.296-2.299S59.732,72.576,61,72.576L61,72.576z"/>
	<path fill-rule="evenodd" clip-rule="evenodd" fill="#BABABA" d="M42.262,62.457c0.669,0.385,0.901,1.236,0.518,1.898
		c-0.382,0.662-1.235,0.887-1.902,0.5l-3.672-2.119c-0.67-0.387-0.901-1.238-0.519-1.898c0.383-0.664,1.234-0.888,1.904-0.501
		L42.262,62.457L42.262,62.457z M73.004,51.289c0.382-0.662,1.234-0.887,1.902-0.501c0.67,0.386,0.9,1.236,0.519,1.899l-2.1,3.638
		c-0.383,0.662-1.234,0.886-1.902,0.5c-0.672-0.386-0.902-1.236-0.52-1.897L73.004,51.289L73.004,51.289z M50.982,54.75
		c0.386,0.668,0.162,1.521-0.502,1.904c-0.661,0.384-1.512,0.151-1.897-0.517l-2.122-3.673c-0.386-0.67-0.161-1.52,0.501-1.903
		c0.662-0.383,1.513-0.151,1.899,0.517L50.982,54.75L50.982,54.75z M61.001,46.668c2.016,0,3.649,1.634,3.649,3.65
		c0,2.015-1.634,3.648-3.649,3.648c-2.015,0-3.649-1.633-3.649-3.648C57.352,48.302,58.986,46.668,61.001,46.668L61.001,46.668z
		 M48.675,93.426c0.384-0.663,1.235-0.889,1.904-0.501c0.669,0.387,0.901,1.237,0.519,1.9l-2.1,3.638
		c-0.383,0.661-1.235,0.886-1.904,0.5c-0.669-0.387-0.9-1.237-0.518-1.899L48.675,93.426L48.675,93.426z M84.798,87.013
		c0.668,0.387,0.9,1.238,0.518,1.9c-0.382,0.663-1.236,0.887-1.904,0.501l-3.671-2.121c-0.671-0.386-0.901-1.236-0.52-1.898
		c0.382-0.661,1.235-0.888,1.904-0.5L84.798,87.013L84.798,87.013z M41.052,84.777c0.662-0.382,1.513-0.15,1.898,0.519
		c0.386,0.669,0.162,1.521-0.5,1.903L38.812,89.3c-0.663,0.383-1.513,0.15-1.898-0.518c-0.387-0.669-0.162-1.521,0.5-1.903
		L41.052,84.777L41.052,84.777z M75.539,97.286c0.386,0.669,0.161,1.522-0.501,1.904c-0.661,0.382-1.513,0.149-1.898-0.52
		l-2.121-3.673c-0.385-0.668-0.161-1.521,0.502-1.902c0.663-0.383,1.514-0.15,1.898,0.517L75.539,97.286L75.539,97.286z
		 M85.328,71.226c2.017,0,3.649,1.634,3.649,3.649c0,2.017-1.633,3.649-3.649,3.649c-2.016,0-3.649-1.633-3.649-3.649
		C81.679,72.859,83.313,71.226,85.328,71.226L85.328,71.226z M61.001,95.784c2.016,0,3.649,1.635,3.649,3.649
		s-1.634,3.648-3.649,3.648c-2.015,0-3.649-1.634-3.649-3.648S58.986,95.784,61.001,95.784L61.001,95.784z M36.673,71.226
		c2.015,0,3.648,1.634,3.648,3.649c0,2.017-1.634,3.649-3.648,3.649c-2.016,0-3.649-1.633-3.649-3.649
		C33.023,72.859,34.657,71.226,36.673,71.226L36.673,71.226z"/>
	<path fill-rule="evenodd" clip-rule="evenodd" fill="#BABABA" d="M31.562,48.754l-2.22-2.22c-0.696-0.697-0.696-1.833,0-2.529
		l2.249-2.249c0.697-0.696,1.833-0.696,2.529,0l2.39,2.391C34.73,45.541,33.075,47.083,31.562,48.754L31.562,48.754z M90.438,48.755
		l2.222-2.221c0.695-0.697,0.695-1.833,0-2.529l-2.248-2.249c-0.697-0.696-1.833-0.696-2.528,0l-2.392,2.391
		C87.271,45.541,88.926,47.084,90.438,48.755L90.438,48.755z M64.557,37.871v-1.63c2.885-0.672,5.464-2.144,7.489-4.169
		c2.826-2.826,4.577-6.731,4.577-11.045c0-4.313-1.751-8.22-4.577-11.045C69.221,7.155,65.315,5.406,61,5.406
		c-4.312,0-8.218,1.749-11.045,4.576c-2.826,2.825-4.576,6.732-4.576,11.045c0,4.313,1.75,8.219,4.576,11.045
		c2.025,2.026,4.604,3.498,7.49,4.169v1.63c-8.927,0.834-16.949,4.775-22.952,10.722c-6.792,6.728-10.992,16.021-10.992,26.283
		c0,10.263,4.201,19.556,10.992,26.283c6.791,6.727,16.163,10.888,26.507,10.888c10.345,0,19.718-4.161,26.508-10.888
		c6.791-6.728,10.993-16.021,10.993-26.283c0-10.262-4.202-19.555-10.993-26.283C81.504,42.646,73.482,38.705,64.557,37.871
		L64.557,37.871z M64.557,32.97v-4.717h2.164c1.183,0,2.15-0.968,2.15-2.152v-1.639c0-1.183-0.971-2.15-2.15-2.15H55.373
		c-1.18,0-2.15,0.969-2.15,2.15V26.1c0,1.182,0.967,2.152,2.15,2.152h2.073v4.717c-2.011-0.598-3.809-1.689-5.254-3.134
		c-2.253-2.254-3.648-5.369-3.648-8.809c0-3.439,1.396-6.555,3.648-8.809c2.255-2.253,5.37-3.648,8.809-3.648
		c3.44,0,6.557,1.395,8.81,3.648c2.254,2.254,3.649,5.37,3.649,8.809c0,3.44-1.396,6.555-3.649,8.809
		C68.365,31.28,66.567,32.372,64.557,32.97L64.557,32.97z M61,107.182c9.021,0,17.185-3.618,23.087-9.463
		c5.898-5.845,9.549-13.921,9.549-22.844s-3.65-17-9.549-22.843C78.185,46.186,70.021,42.569,61,42.569
		c-9.022,0-17.184,3.616-23.084,9.462c-5.9,5.843-9.549,13.92-9.549,22.843s3.649,16.999,9.549,22.844
		C43.816,103.563,51.978,107.182,61,107.182L61,107.182z"/>
</g>
</svg>
